<svg width="206" height="34" viewBox="0 0 206 34" fill="none" xmlns="http://www.w3.org/2000/svg">
<g filter="url(#filter0_d_65_2)">
<path d="M10.4 29.4C8.96 29.4 7.64 29.04 6.44 28.32C5.26667 27.5733 4.32 26.6 3.6 25.4C2.90667 24.1733 2.56 22.8267 2.56 21.36V19.52C2.56 19.3867 2.62667 19.32 2.76 19.32H7.24C7.34667 19.32 7.4 19.3867 7.4 19.52V21.36C7.4 22.24 7.69333 23 8.28 23.64C8.86667 24.2533 9.57333 24.56 10.4 24.56C11.2267 24.56 11.9333 24.24 12.52 23.6C13.1067 22.96 13.4 22.2133 13.4 21.36C13.4 20.3733 12.76 19.52 11.48 18.8C11.0533 18.56 10.3867 18.1867 9.48 17.68C8.57333 17.1733 7.72 16.6933 6.92 16.24C5.45333 15.3867 4.36 14.32 3.64 13.04C2.94667 11.7333 2.6 10.2667 2.6 8.64C2.6 7.14667 2.96 5.81333 3.68 4.64C4.4 3.44 5.34667 2.49333 6.52 1.8C7.72 1.10667 9.01333 0.759999 10.4 0.759999C11.8133 0.759999 13.1067 1.12 14.28 1.84C15.48 2.53333 16.4267 3.48 17.12 4.68C17.84 5.85333 18.2 7.17333 18.2 8.64V11.92C18.2 12.0267 18.1467 12.08 18.04 12.08H13.56C13.4533 12.08 13.4 12.0267 13.4 11.92L13.36 8.64C13.36 7.70667 13.0667 6.94667 12.48 6.36C11.8933 5.77333 11.2 5.48 10.4 5.48C9.57333 5.48 8.86667 5.8 8.28 6.44C7.69333 7.05333 7.4 7.78667 7.4 8.64C7.4 9.52 7.58667 10.2533 7.96 10.84C8.33333 11.4267 9.01333 11.9867 10 12.52C10.1333 12.6 10.3867 12.7467 10.76 12.96C11.16 13.1467 11.5867 13.3733 12.04 13.64C12.4933 13.88 12.8933 14.0933 13.24 14.28C13.6133 14.4667 13.84 14.5867 13.92 14.64C15.2533 15.3867 16.3067 16.3067 17.08 17.4C17.8533 18.4667 18.24 19.7867 18.24 21.36C18.24 22.88 17.88 24.2533 17.16 25.48C16.4667 26.68 15.52 27.64 14.32 28.36C13.1467 29.0533 11.84 29.4 10.4 29.4ZM23.2219 29C23.0885 29 23.0219 28.9333 23.0219 28.8L23.1019 1.32C23.1019 1.21333 23.1552 1.16 23.2619 1.16H30.9419C33.3952 1.16 35.3285 1.90667 36.7419 3.4C38.1819 4.89333 38.9019 6.92 38.9019 9.48C38.9019 11.3733 38.5285 13.0133 37.7819 14.4C37.0352 15.7867 36.0619 16.8533 34.8619 17.6C33.6619 18.3467 32.3552 18.72 30.9419 18.72H27.9019V28.8C27.9019 28.9333 27.8352 29 27.7019 29H23.2219ZM27.9019 13.88H30.9419C31.7952 13.88 32.5285 13.48 33.1419 12.68C33.7819 11.8533 34.1019 10.7867 34.1019 9.48C34.1019 8.44 33.8219 7.58667 33.2619 6.92C32.7019 6.25333 31.9285 5.92 30.9419 5.92L27.9019 5.96V13.88ZM40.2634 28.8L45.2234 1.32C45.2501 1.21333 45.3168 1.16 45.4234 1.16H51.2234C51.3301 1.16 51.3968 1.21333 51.4234 1.32L56.1834 28.8C56.2101 28.9333 56.1568 29 56.0234 29H51.5834C51.4768 29 51.4101 28.9333 51.3834 28.8L50.9434 25.88H45.5034L45.0634 28.8C45.0368 28.9333 44.9701 29 44.8634 29H40.4234C40.3168 29 40.2634 28.9333 40.2634 28.8ZM46.3034 21.6H50.1434L48.5034 10.36L48.2634 8.88L48.1034 10.36L46.3034 21.6ZM67.1944 29.4C65.7277 29.4 64.3944 29.04 63.1944 28.32C62.021 27.5733 61.0877 26.5867 60.3944 25.36C59.701 24.1333 59.3544 22.76 59.3544 21.24L59.3944 8.76C59.3944 7.29333 59.7277 5.96 60.3944 4.76C61.0877 3.53333 62.021 2.56 63.1944 1.84C64.3944 1.09333 65.7277 0.719999 67.1944 0.719999C68.661 0.719999 69.981 1.08 71.1544 1.8C72.3277 2.52 73.261 3.49333 73.9544 4.72C74.6477 5.92 74.9944 7.26667 74.9944 8.76V10.6C74.9944 10.7067 74.941 10.76 74.8344 10.76H70.3544C70.2477 10.76 70.1944 10.7067 70.1944 10.6V8.76C70.1944 7.88 69.901 7.12 69.3144 6.48C68.7544 5.84 68.0477 5.52 67.1944 5.52C66.2344 5.52 65.501 5.85333 64.9944 6.52C64.4877 7.16 64.2344 7.90666 64.2344 8.76V21.24C64.2344 22.2267 64.5144 23.0267 65.0744 23.64C65.661 24.2533 66.3677 24.56 67.1944 24.56C68.0477 24.56 68.7544 24.2267 69.3144 23.56C69.901 22.8667 70.1944 22.0933 70.1944 21.24V19.4C70.1944 19.2933 70.2477 19.24 70.3544 19.24H74.8744C74.981 19.24 75.0344 19.2933 75.0344 19.4V21.24C75.0344 22.76 74.6744 24.1333 73.9544 25.36C73.261 26.5867 72.3277 27.5733 71.1544 28.32C69.981 29.04 68.661 29.4 67.1944 29.4ZM80.1194 29C80.0127 29 79.9594 28.9333 79.9594 28.8L79.9994 1.32C79.9994 1.21333 80.0527 1.16 80.1594 1.16H92.9994C93.106 1.16 93.1594 1.22667 93.1594 1.36V5.84C93.1594 5.94666 93.106 6 92.9994 6H84.7994V12.24H92.9994C93.106 12.24 93.1594 12.2933 93.1594 12.4L93.1994 16.92C93.1994 17.0267 93.146 17.08 93.0394 17.08H84.7994V24.08H93.0394C93.146 24.08 93.1994 24.1467 93.1994 24.28V28.84C93.1994 28.9467 93.146 29 93.0394 29H80.1194ZM114.054 29.4C112.587 29.4 111.254 29.04 110.054 28.32C108.88 27.5733 107.947 26.5867 107.254 25.36C106.56 24.1333 106.214 22.76 106.214 21.24L106.254 8.76C106.254 7.29333 106.587 5.96 107.254 4.76C107.947 3.53333 108.88 2.56 110.054 1.84C111.254 1.09333 112.587 0.719999 114.054 0.719999C115.52 0.719999 116.84 1.08 118.014 1.8C119.187 2.52 120.12 3.49333 120.814 4.72C121.507 5.92 121.854 7.26667 121.854 8.76V10.6C121.854 10.7067 121.8 10.76 121.694 10.76H117.214C117.107 10.76 117.054 10.7067 117.054 10.6V8.76C117.054 7.88 116.76 7.12 116.174 6.48C115.614 5.84 114.907 5.52 114.054 5.52C113.094 5.52 112.36 5.85333 111.854 6.52C111.347 7.16 111.094 7.90666 111.094 8.76V21.24C111.094 22.2267 111.374 23.0267 111.934 23.64C112.52 24.2533 113.227 24.56 114.054 24.56C114.907 24.56 115.614 24.2267 116.174 23.56C116.76 22.8667 117.054 22.0933 117.054 21.24V19.4C117.054 19.2933 117.107 19.24 117.214 19.24H121.734C121.84 19.24 121.894 19.2933 121.894 19.4V21.24C121.894 22.76 121.534 24.1333 120.814 25.36C120.12 26.5867 119.187 27.5733 118.014 28.32C116.84 29.04 115.52 29.4 114.054 29.4ZM126.979 29C126.872 29 126.819 28.9333 126.819 28.8L126.899 1.32C126.899 1.21333 126.952 1.16 127.059 1.16H135.139C136.579 1.16 137.899 1.52 139.099 2.24C140.325 2.93333 141.299 3.88 142.019 5.08C142.739 6.25333 143.099 7.58667 143.099 9.08C143.099 10.0667 142.952 10.96 142.659 11.76C142.365 12.5333 142.019 13.2 141.619 13.76C141.219 14.2933 140.859 14.6933 140.539 14.96C141.979 16.56 142.699 18.44 142.699 20.6L142.739 28.8C142.739 28.9333 142.672 29 142.539 29H138.019C137.912 29 137.859 28.96 137.859 28.88V20.6C137.859 19.64 137.512 18.8133 136.819 18.12C136.152 17.4 135.325 17.04 134.339 17.04H131.699L131.659 28.8C131.659 28.9333 131.605 29 131.499 29H126.979ZM131.699 12.24H135.139C135.965 12.24 136.699 11.9333 137.339 11.32C137.979 10.7067 138.299 9.96 138.299 9.08C138.299 8.22667 137.979 7.49333 137.339 6.88C136.725 6.26667 135.992 5.96 135.139 5.96H131.699V12.24ZM148.276 29C148.169 29 148.116 28.9333 148.116 28.8L148.156 1.32C148.156 1.21333 148.209 1.16 148.316 1.16H161.156C161.262 1.16 161.316 1.22667 161.316 1.36V5.84C161.316 5.94666 161.262 6 161.156 6H152.956V12.24H161.156C161.262 12.24 161.316 12.2933 161.316 12.4L161.356 16.92C161.356 17.0267 161.302 17.08 161.196 17.08H152.956V24.08H161.196C161.302 24.08 161.356 24.1467 161.356 24.28V28.84C161.356 28.9467 161.302 29 161.196 29H148.276ZM165.162 28.8L170.122 1.32C170.149 1.21333 170.215 1.16 170.322 1.16H176.122C176.229 1.16 176.295 1.21333 176.322 1.32L181.082 28.8C181.109 28.9333 181.055 29 180.922 29H176.482C176.375 29 176.309 28.9333 176.282 28.8L175.842 25.88H170.402L169.962 28.8C169.935 28.9333 169.869 29 169.762 29H165.322C165.215 29 165.162 28.9333 165.162 28.8ZM171.202 21.6H175.042L173.402 10.36L173.162 8.88L173.002 10.36L171.202 21.6ZM185.752 29C185.646 29 185.592 28.9333 185.592 28.8L185.672 1.32C185.672 1.21333 185.726 1.16 185.832 1.16H190.712C190.819 1.16 190.912 1.21333 190.992 1.32L194.632 6.6L198.272 1.32C198.352 1.21333 198.446 1.16 198.552 1.16H203.472C203.579 1.16 203.632 1.21333 203.632 1.32L203.712 28.8C203.712 28.9333 203.659 29 203.552 29H199.032C198.926 29 198.872 28.9333 198.872 28.8L198.832 8.4L194.632 14.48L190.472 8.4L190.432 28.8C190.432 28.9333 190.379 29 190.272 29H185.752Z" fill="white"/>
</g>
<defs>
<filter id="filter0_d_65_2" x="0.559998" y="0.720001" width="205.152" height="32.68" filterUnits="userSpaceOnUse" color-interpolation-filters="sRGB">
<feFlood flood-opacity="0" result="BackgroundImageFix"/>
<feColorMatrix in="SourceAlpha" type="matrix" values="0 0 0 0 0 0 0 0 0 0 0 0 0 0 0 0 0 0 127 0" result="hardAlpha"/>
<feOffset dy="2"/>
<feGaussianBlur stdDeviation="1"/>
<feComposite in2="hardAlpha" operator="out"/>
<feColorMatrix type="matrix" values="0 0 0 0 0 0 0 0 0 0 0 0 0 0 0 0 0 0 0.25 0"/>
<feBlend mode="normal" in2="BackgroundImageFix" result="effect1_dropShadow_65_2"/>
<feBlend mode="normal" in="SourceGraphic" in2="effect1_dropShadow_65_2" result="shape"/>
</filter>
</defs>
</svg>
